<svg version="1.1" viewBox="0.0 0.0 960.0 960.0" fill="none" stroke="none" stroke-linecap="square" stroke-miterlimit="10" xmlns:xlink="http://www.w3.org/1999/xlink" xmlns="http://www.w3.org/2000/svg"><clipPath id="p.0"><path d="m0 0l960.0 0l0 960.0l-960.0 0l0 -960.0z" clip-rule="nonzero"/></clipPath><g clip-path="url(#p.0)"><path fill="#000000" fill-opacity="0.0" d="m0 0l960.0 0l0 960.0l-960.0 0z" fill-rule="evenodd"/><path fill="#000000" fill-opacity="0.0" d="m526.1942 210.28609l212.25195 0l0 504.18896l-212.25195 0z" fill-rule="evenodd"/><path fill="#434343" d="m736.5692 569.4892l0 33.796875l-189.26562 0q-0.390625 -12.703125 4.109375 -24.421875q7.21875 -19.328125 23.140625 -38.078125q15.921875 -18.75 46.0 -43.359344q46.671875 -38.28125 63.078125 -60.640625q16.40625 -22.375 16.40625 -42.296875q0 -20.890625 -14.9375 -35.25q-14.9375 -14.359375 -38.96875 -14.359375q-25.390625 0 -40.625 15.234375q-15.234375 15.234375 -15.421875 42.1875l-36.140625 -3.703125q3.71875 -40.4375 27.9375 -61.625q24.21875 -21.1875 65.03125 -21.1875q41.21875 0 65.234375 22.859375q24.03125 22.84375 24.03125 56.625q0 17.1875 -7.03125 33.796875q-7.03125 16.59375 -23.34375 34.953125q-16.3125 18.359375 -54.203125 50.390594q-31.640625 26.5625 -40.625 36.046875q-8.984375 9.46875 -14.84375 19.03125l140.4375 0z" fill-rule="nonzero"/><path fill="#000000" fill-opacity="0.0" d="m513.2231 10.097481l230.42523 0l0 423.40158l-230.42523 0z" fill-rule="evenodd"/><path fill="#85200c" d="m553.08246 403.09747l0 -286.32812l108.015625 0q28.515625 0 43.546875 2.734375q21.09375 3.515625 35.34375 13.374992q14.265625 9.859375 22.953125 27.640625q8.703125 17.765625 8.703125 39.0625q0 36.515625 -23.25 61.8125q-23.234375 25.296875 -83.984375 25.296875l-73.4375 0l0 116.40625l-37.890625 0zm37.890625 -150.20312l74.03125 0q36.71875 0 52.140625 -13.671875q15.4375 -13.671875 15.4375 -38.46875q0 -17.96875 -9.09375 -30.765625q-9.078125 -12.796875 -23.921875 -16.890625q-9.5625 -2.546875 -35.34375 -2.546875l-73.25 0l0 102.34375z" fill-rule="nonzero"/><path fill="#000000" fill-opacity="0.0" d="m695.8106 462.70004l192.18896 0l0 504.18893l-192.18896 0z" fill-rule="evenodd"/><path fill="#85200c" d="m735.67 855.7l0 -286.32812l108.015625 0q28.515625 0 43.546875 2.734375q21.09375 3.515625 35.34375 13.375q14.265625 9.859375 22.953125 27.640625q8.703125 17.765625 8.703125 39.0625q0 36.515625 -23.25 61.8125q-23.234375 25.296875 -83.984375 25.296875l-73.4375 0l0 116.40625l-37.890625 0zm37.890625 -150.20312l74.03125 0q36.71875 0 52.140625 -13.671875q15.4375 -13.671875 15.4375 -38.46875q0 -17.96875 -9.09375 -30.765625q-9.078125 -12.796875 -23.921875 -16.890625q-9.5625 -2.546875 -35.34375 -2.546875l-73.25 0l0 102.34375z" fill-rule="nonzero"/><path fill="#f3f3f3" d="m268.72702 214.97638l0 0l0 0c65.193146 0 127.716156 25.897873 173.81467 71.99637c46.09851 46.09851 71.9964 108.62152 71.9964 173.81467l0 284.2362c0 0.0022583008 -0.0018920898 0.0040893555 -0.0041503906 0.0040893555l-491.61792 -0.0040893555l0 0c-0.0022621155 0 -0.004096985 -0.0018310547 -0.004096985 -0.0040893555l0.004096985 -284.23212l0 0c0 -135.75769 110.05335 -245.81104 245.811 -245.81104z" fill-rule="evenodd"/><path stroke="#434343" stroke-width="24.0" stroke-linejoin="round" stroke-linecap="butt" d="m268.72702 214.97638l0 0l0 0c65.193146 0 127.716156 25.897873 173.81467 71.99637c46.09851 46.09851 71.9964 108.62152 71.9964 173.81467l0 284.2362c0 0.0022583008 -0.0018920898 0.0040893555 -0.0041503906 0.0040893555l-491.61792 -0.0040893555l0 0c-0.0022621155 0 -0.004096985 -0.0018310547 -0.004096985 -0.0040893555l0.004096985 -284.23212l0 0c0 -135.75769 110.05335 -245.81104 245.811 -245.81104z" fill-rule="evenodd"/><path fill="#f3f3f3" d="m22.91601 694.0315l491.6239 0l0 73.752625c-245.81195 0 -245.81195 28.101074 -491.6239 12.1345825z" fill-rule="evenodd"/><path stroke="#434343" stroke-width="24.0" stroke-linejoin="round" stroke-linecap="butt" d="m22.91601 694.0315l491.6239 0l0 73.752625c-245.81195 0 -245.81195 28.101074 -491.6239 12.1345825z" fill-rule="evenodd"/><path fill="#f3f3f3" d="m35.501312 672.0l466.4882 0l0 41.51184l-466.4882 0z" fill-rule="evenodd"/><path stroke="#f3f3f3" stroke-width="1.0" stroke-linejoin="round" stroke-linecap="butt" d="m35.501312 672.0l466.4882 0l0 41.51184l-466.4882 0z" fill-rule="evenodd"/><path fill="#434343" d="m195.31023 470.1676l-9.846313 13.474731l0 0c-11.242462 -10.524017 -14.759125 -30.926971 -8.124329 -47.135864c6.634781 -16.208923 21.24965 -22.919098 33.76396 -15.502167c12.5142975 7.4169006 18.832504 26.53357 14.596603 44.164246c-4.235901 17.630646 -17.639633 28.00534 -30.965927 23.968079z" fill-rule="evenodd"/><path stroke="#434343" stroke-width="1.0" stroke-linejoin="round" stroke-linecap="butt" d="m195.31023 470.1676l-9.846313 13.474731l0 0c-11.242462 -10.524017 -14.759125 -30.926971 -8.124329 -47.135864c6.634781 -16.208923 21.24965 -22.919098 33.76396 -15.502167c12.5142975 7.4169006 18.832504 26.53357 14.596603 44.164246c-4.235901 17.630646 -17.639633 28.00534 -30.965927 23.968079z" fill-rule="evenodd"/><path fill="#434343" d="m326.3102 470.1676l-9.846283 13.474731l0 0c-11.242493 -10.524017 -14.759125 -30.926971 -8.124359 -47.135864c6.634796 -16.208923 21.249664 -22.919098 33.763977 -15.502167c12.514313 7.4169006 18.832489 26.53357 14.596588 44.164246c-4.235901 17.630646 -17.639618 28.00534 -30.965912 23.968079z" fill-rule="evenodd"/><path stroke="#434343" stroke-width="1.0" stroke-linejoin="round" stroke-linecap="butt" d="m326.3102 470.1676l-9.846283 13.474731l0 0c-11.242493 -10.524017 -14.759125 -30.926971 -8.124359 -47.135864c6.634796 -16.208923 21.249664 -22.919098 33.763977 -15.502167c12.514313 7.4169006 18.832489 26.53357 14.596588 44.164246c-4.235901 17.630646 -17.639618 28.00534 -30.965912 23.968079z" fill-rule="evenodd"/></g></svg>