<svg version="1.1" viewBox="0.0 0.0 512.0 512.0" fill="none" stroke="none" stroke-linecap="square" stroke-miterlimit="10" xmlns:xlink="http://www.w3.org/1999/xlink" xmlns="http://www.w3.org/2000/svg"><clipPath id="p.0"><path d="m0 0l512.0 0l0 512.0l-512.0 0l0 -512.0z" clip-rule="nonzero"/></clipPath><g clip-path="url(#p.0)"><path fill="#000000" fill-opacity="0.0" d="m0 0l512.0 0l0 512.0l-512.0 0z" fill-rule="evenodd"/><path fill="#000000" fill-opacity="0.0" d="m71.34777 491.87402l0 0c-28.649231 0 -51.874016 -1.9353333 -51.874016 -4.3226624l0 -463.10272l0 0c0 -1.1464424 5.4652824 -2.2459278 15.193548 -3.0565834c9.728264 -0.8106575 22.922623 -1.266079 36.68047 -1.266079z" fill-rule="evenodd"/><path fill="#000000" fill-opacity="0.0" d="m71.34777 491.87402l0 0c-28.649231 0 -51.874016 -1.9353333 -51.874016 -4.3226624l0 -463.10272l0 0c0 -1.1464424 5.4652824 -2.2459278 15.193548 -3.0565834c9.728264 -0.8106575 22.922623 -1.266079 36.68047 -1.266079" fill-rule="evenodd"/><path stroke="#666666" stroke-width="24.0" stroke-linejoin="round" stroke-linecap="butt" stroke-dasharray="192.0,72.0,24.0,72.0" d="m71.34777 491.87402l0 0c-28.649231 0 -51.874016 -1.9353333 -51.874016 -4.3226624l0 -463.10272l0 0c0 -1.1464424 5.4652824 -2.2459278 15.193548 -3.0565834c9.728264 -0.8106575 22.922623 -1.266079 36.68047 -1.266079" fill-rule="evenodd"/><path fill="#000000" fill-opacity="0.0" d="m440.65222 491.87402l0 0c28.649231 0 51.874023 -1.9353333 51.874023 -4.3226624l0 -463.10272l0 0c0 -1.1464424 -5.465271 -2.2459278 -15.1935425 -3.0565834c-9.7282715 -0.8106575 -22.922638 -1.266079 -36.68048 -1.266079z" fill-rule="evenodd"/><path fill="#000000" fill-opacity="0.0" d="m440.65222 491.87402l0 0c28.649231 0 51.874023 -1.9353333 51.874023 -4.3226624l0 -463.10272l0 0c0 -1.1464424 -5.465271 -2.2459278 -15.1935425 -3.0565834c-9.7282715 -0.8106575 -22.922638 -1.266079 -36.68048 -1.266079" fill-rule="evenodd"/><path stroke="#666666" stroke-width="24.0" stroke-linejoin="round" stroke-linecap="butt" stroke-dasharray="192.0,72.0,24.0,72.0" d="m440.65222 491.87402l0 0c28.649231 0 51.874023 -1.9353333 51.874023 -4.3226624l0 -463.10272l0 0c0 -1.1464424 -5.465271 -2.2459278 -15.1935425 -3.0565834c-9.7282715 -0.8106575 -22.922638 -1.266079 -36.68048 -1.266079" fill-rule="evenodd"/><path fill="#434343" d="m77.222435 73.53503l0 0c0 -5.125618 4.155136 -9.280754 9.280754 -9.280754l152.67014 0c2.4614105 0 4.822006 0.97779083 6.5624847 2.7182693c1.7404785 1.7404785 2.718277 4.101074 2.718277 6.5624847l0 166.92184c0 5.1256104 -4.155136 9.280746 -9.280762 9.280746l-152.67014 0c-5.125618 0 -9.280754 -4.155136 -9.280754 -9.280746z" fill-rule="evenodd"/><path stroke="#434343" stroke-width="1.0" stroke-linejoin="round" stroke-linecap="butt" d="m77.222435 73.53503l0 0c0 -5.125618 4.155136 -9.280754 9.280754 -9.280754l152.67014 0c2.4614105 0 4.822006 0.97779083 6.5624847 2.7182693c1.7404785 1.7404785 2.718277 4.101074 2.718277 6.5624847l0 166.92184c0 5.1256104 -4.155136 9.280746 -9.280762 9.280746l-152.67014 0c-5.125618 0 -9.280754 -4.155136 -9.280754 -9.280746z" fill-rule="evenodd"/><path fill="#b7b7b7" d="m263.5453 71.009476l0 0c0 -5.125618 4.155121 -9.28075 9.280762 -9.28075l152.67014 0c2.4613953 0 4.821991 0.97779083 6.5624695 2.7182655c1.7404785 1.7404861 2.7182617 4.101082 2.7182617 6.5624847l0 166.92184c0 5.1256256 -4.155121 9.280762 -9.280731 9.280762l-152.67014 0c-5.125641 0 -9.280762 -4.155136 -9.280762 -9.280762z" fill-rule="evenodd"/><path stroke="#b7b7b7" stroke-width="1.0" stroke-linejoin="round" stroke-linecap="butt" d="m263.5453 71.009476l0 0c0 -5.125618 4.155121 -9.28075 9.280762 -9.28075l152.67014 0c2.4613953 0 4.821991 0.97779083 6.5624695 2.7182655c1.7404785 1.7404861 2.7182617 4.101082 2.7182617 6.5624847l0 166.92184c0 5.1256256 -4.155121 9.280762 -9.280731 9.280762l-152.67014 0c-5.125641 0 -9.280762 -4.155136 -9.280762 -9.280762z" fill-rule="evenodd"/><path fill="#b7b7b7" d="m77.222435 274.068l0 0c0 -5.125641 4.155136 -9.280762 9.280754 -9.280762l152.67014 0c2.4614105 0 4.822006 0.9777832 6.5624847 2.7182617c1.7404785 1.7404785 2.718277 4.101074 2.718277 6.5625l0 166.92184c0 5.1256104 -4.155136 9.280762 -9.280762 9.280762l-152.67014 0c-5.125618 0 -9.280754 -4.1551514 -9.280754 -9.280762z" fill-rule="evenodd"/><path stroke="#b7b7b7" stroke-width="1.0" stroke-linejoin="round" stroke-linecap="butt" d="m77.222435 274.068l0 0c0 -5.125641 4.155136 -9.280762 9.280754 -9.280762l152.67014 0c2.4614105 0 4.822006 0.9777832 6.5624847 2.7182617c1.7404785 1.7404785 2.718277 4.101074 2.718277 6.5625l0 166.92184c0 5.1256104 -4.155136 9.280762 -9.280762 9.280762l-152.67014 0c-5.125618 0 -9.280754 -4.1551514 -9.280754 -9.280762z" fill-rule="evenodd"/><path fill="#434343" d="m263.5453 271.54245l0 0c0 -5.125641 4.155121 -9.280762 9.280762 -9.280762l152.67014 0c2.4613953 0 4.821991 0.9777832 6.5624695 2.7182617c1.7404785 1.7404785 2.7182617 4.101074 2.7182617 6.5625l0 166.92184c0 5.1256104 -4.155121 9.280731 -9.280731 9.280731l-152.67014 0c-5.125641 0 -9.280762 -4.155121 -9.280762 -9.280731z" fill-rule="evenodd"/><path stroke="#434343" stroke-width="1.0" stroke-linejoin="round" stroke-linecap="butt" d="m263.5453 271.54245l0 0c0 -5.125641 4.155121 -9.280762 9.280762 -9.280762l152.67014 0c2.4613953 0 4.821991 0.9777832 6.5624695 2.7182617c1.7404785 1.7404785 2.7182617 4.101074 2.7182617 6.5625l0 166.92184c0 5.1256104 -4.155121 9.280731 -9.280731 9.280731l-152.67014 0c-5.125641 0 -9.280762 -4.155121 -9.280762 -9.280731z" fill-rule="evenodd"/></g></svg>