<svg version="1.1" viewBox="0.0 0.0 1024.0 1024.0" fill="none" stroke="none" stroke-linecap="square" stroke-miterlimit="10" xmlns:xlink="http://www.w3.org/1999/xlink" xmlns="http://www.w3.org/2000/svg"><clipPath id="p.0"><path d="m0 0l1024.0 0l0 1024.0l-1024.0 0l0 -1024.0z" clip-rule="nonzero"/></clipPath><g clip-path="url(#p.0)"><path fill="#000000" fill-opacity="0.0" d="m0 0l1024.0 0l0 1024.0l-1024.0 0z" fill-rule="evenodd"/><path fill="#f3f3f3" d="m511.99603 19.423885l0 0l0 0c112.47266 0 220.33875 44.679592 299.86896 124.20978c79.53021 79.5302 124.20978 187.39627 124.20978 299.86896l0 490.37793c0 0.00390625 -0.0031738281 0.007080078 -0.007080078 0.007080078l-848.1504 -0.007080078l0 0c-0.00390625 0 -0.0070724487 -0.003112793 -0.0070724487 -0.007019043l0.0070724487 -490.3709l0 0c0 -234.21222 189.86652 -424.07874 424.07874 -424.07874z" fill-rule="evenodd"/><path stroke="#434343" stroke-width="24.0" stroke-linejoin="round" stroke-linecap="butt" d="m511.99603 19.423885l0 0l0 0c112.47266 0 220.33875 44.679592 299.86896 124.20978c79.53021 79.5302 124.20978 187.39627 124.20978 299.86896l0 490.37793c0 0.00390625 -0.0031738281 0.007080078 -0.007080078 0.007080078l-848.1504 -0.007080078l0 0c-0.00390625 0 -0.0070724487 -0.003112793 -0.0070724487 -0.007019043l0.0070724487 -490.3709l0 0c0 -234.21222 189.86652 -424.07874 424.07874 -424.07874z" fill-rule="evenodd"/><path fill="#f3f3f3" d="m87.9173 845.9105l848.16565 0l0 127.2417c-424.08282 0 -424.08282 48.481384 -848.16565 20.93512z" fill-rule="evenodd"/><path stroke="#434343" stroke-width="24.0" stroke-linejoin="round" stroke-linecap="butt" d="m87.9173 845.9105l848.16565 0l0 127.2417c-424.08282 0 -424.08282 48.481384 -848.16565 20.93512z" fill-rule="evenodd"/><path fill="#f3f3f3" d="m100.438324 807.90027l823.11816 0l0 71.62207l-823.11816 0z" fill-rule="evenodd"/><path stroke="#f3f3f3" stroke-width="1.0" stroke-linejoin="round" stroke-linecap="butt" d="m100.438324 807.90027l823.11816 0l0 71.62207l-823.11816 0z" fill-rule="evenodd"/><path fill="#434343" d="m385.3439 459.69296l-16.989685 23.247772l0 0c-19.398773 -18.156921 -25.466736 -53.35785 -14.018463 -81.322815c11.448242 -27.964966 36.666077 -39.54193 58.25937 -26.745636c21.593323 12.796265 32.4953 45.777985 25.18631 76.19589c-7.309021 30.417908 -30.437012 48.3172 -53.431396 41.351746z" fill-rule="evenodd"/><path stroke="#434343" stroke-width="1.0" stroke-linejoin="round" stroke-linecap="butt" d="m385.3439 459.69296l-16.989685 23.247772l0 0c-19.398773 -18.156921 -25.466736 -53.35785 -14.018463 -81.322815c11.448242 -27.964966 36.666077 -39.54193 58.25937 -26.745636c21.593323 12.796265 32.4953 45.777985 25.18631 76.19589c-7.309021 30.417908 -30.437012 48.3172 -53.431396 41.351746z" fill-rule="evenodd"/><path fill="#434343" d="m611.3503 459.69296l-16.989746 23.247772l0 0c-19.398743 -18.156921 -25.466736 -53.35785 -14.018433 -81.322815c11.448242 -27.964966 36.666077 -39.54193 58.25934 -26.745636c21.593323 12.796265 32.49536 45.777985 25.18634 76.19589c-7.309021 30.417908 -30.437012 48.3172 -53.431396 41.351746z" fill-rule="evenodd"/><path stroke="#434343" stroke-width="1.0" stroke-linejoin="round" stroke-linecap="butt" d="m611.3503 459.69296l-16.989746 23.247772l0 0c-19.398743 -18.156921 -25.466736 -53.35785 -14.018433 -81.322815c11.448242 -27.964966 36.666077 -39.54193 58.25934 -26.745636c21.593323 12.796265 32.49536 45.777985 25.18634 76.19589c-7.309021 30.417908 -30.437012 48.3172 -53.431396 41.351746z" fill-rule="evenodd"/></g></svg>